<?xml version="1.0" encoding="utf-8"?>
<!-- Generator: Adobe Illustrator 24.0.2, SVG Export Plug-In . SVG Version: 6.00 Build 0)  -->
<svg version="1.1" id="Layer_1" xmlns="http://www.w3.org/2000/svg" xmlns:xlink="http://www.w3.org/1999/xlink" x="0px" y="0px"
	 viewBox="0 0 209 209" style="enable-background:new 0 0 209 209;" xml:space="preserve">
<g>
	<g>
		<path d="M104.5,6c54.3,0,98.5,44.2,98.5,98.5S158.8,203,104.5,203S6,158.8,6,104.5S50.2,6,104.5,6 M104.5,0C46.8,0,0,46.8,0,104.5
			S46.8,209,104.5,209S209,162.2,209,104.5S162.2,0,104.5,0L104.5,0z"/>
	</g>
</g>
<g>
	<circle cx="104.5" cy="104.5" r="59.2"/>
	<path d="M104.5,45.6c32.5,0,58.9,26.4,58.9,58.9s-26.4,58.9-58.9,58.9S45.6,137,45.6,104.5C45.6,72,72,45.6,104.5,45.6 M104.5,45
		L104.5,45C71.6,45,45,71.6,45,104.5l0,0c0,32.9,26.6,59.5,59.5,59.5l0,0c32.9,0,59.5-26.6,59.5-59.5l0,0
		C164,71.6,137.4,45,104.5,45L104.5,45z"/>
</g>
</svg>
