<?xml version="1.0" encoding="utf-8"?>
<!-- Generator: Adobe Illustrator 24.0.2, SVG Export Plug-In . SVG Version: 6.00 Build 0)  -->
<svg version="1.1" id="Layer_1" xmlns="http://www.w3.org/2000/svg" xmlns:xlink="http://www.w3.org/1999/xlink" x="0px" y="0px"
	 viewBox="0 0 200 618.2" style="enable-background:new 0 0 200 618.2;" xml:space="preserve">
<style type="text/css">
	.st0{stroke:#000000;stroke-width:0.9427;stroke-miterlimit:10;}
</style>
<g>
	<path d="M-112.8-188.8c-0.6,0-1-0.4-1-1s0.4-1,1-1s1,0.4,1,1C-111.8-189.3-112.3-188.8-112.8-188.8z M-112.8-184.8
		c-0.6,0-1-0.4-1-1s0.4-1,1-1s1,0.4,1,1C-111.8-185.3-112.3-184.8-112.8-184.8z M-112.8-180.8c-0.6,0-1-0.4-1-1s0.4-1,1-1s1,0.4,1,1
		C-111.8-181.3-112.3-180.8-112.8-180.8z M-108.8-188.8c-0.6,0-1-0.4-1-1s0.4-1,1-1s1,0.4,1,1C-107.8-189.3-108.3-188.8-108.8-188.8
		z M-108.8-184.8c-0.6,0-1-0.4-1-1s0.4-1,1-1s1,0.4,1,1C-107.8-185.3-108.3-184.8-108.8-184.8z M-108.8-180.8c-0.6,0-1-0.4-1-1
		s0.4-1,1-1s1,0.4,1,1C-107.8-181.3-108.3-180.8-108.8-180.8z"/>
</g>
<circle class="st0" cx="100" cy="98.6" r="94.3"/>
<circle class="st0" cx="100" cy="309.4" r="94.3"/>
<circle class="st0" cx="100" cy="520.2" r="94.3"/>
</svg>
